<svg width="497" height="481" viewBox="0 0 497 481" fill="none" xmlns="http://www.w3.org/2000/svg">
<path fill-rule="evenodd" clip-rule="evenodd" d="M216.817 113.59C211.693 119.341 207.344 123.841 203.795 126.438L203.663 126.535L156.5 126.535C130.731 126.535 116.39 127.714 106.286 132.38C96.2181 137.029 90.2989 145.167 81.4747 159.366L80.8351 160.396L80.5628 159.215C77.3592 145.324 83.3527 132.374 94.4694 120.557C105.585 108.74 121.891 97.9797 139.51 88.4219C157.136 78.8606 176.112 70.4845 192.592 63.4495C195.783 62.0876 198.878 60.7766 201.851 59.5173C214.229 54.2749 224.488 49.9294 230.668 46.5477C234.676 43.2555 236.516 39.469 236.466 35.5402C236.417 31.5826 234.45 27.3846 230.647 23.3084C223.036 15.1511 208.204 7.63287 187.561 3.75542C161.81 -1.0814 126.744 3.89941 94.6731 18.3608C62.6059 32.8204 33.6086 56.7231 19.9109 89.6559C8.22022 117.763 11.6927 147.258 15.7167 174.663C15.9586 176.311 16.2025 177.951 16.4452 179.583C18.2182 191.505 19.926 202.988 20.3069 213.692C20.7396 225.851 19.4641 237.061 14.5963 246.827C4.27113 279.699 -1.92016 311.865 3.5128 343.991C8.94535 376.114 26.0113 408.256 62.321 441.047C134.82 506.519 263.429 485.886 322.031 396.689C351.372 352.031 364.214 312.093 363.322 278.824C362.43 245.576 347.82 218.953 322.161 200.873C298.007 183.852 283.769 168.57 277.107 155.285C270.431 141.97 271.359 130.638 277.568 121.646C283.75 112.692 295.109 106.143 309.129 102.21C323.148 98.277 339.891 96.9411 356.947 98.4617C380.917 96.088 406.009 92.309 428.174 87.2449C450.366 82.1746 469.576 75.8261 481.793 68.3368C487.904 64.5903 492.208 60.5921 494.29 56.3782C496.353 52.2022 496.258 47.7657 493.464 43.023C490.652 38.249 485.098 33.1603 476.222 27.7887C467.354 22.422 455.211 16.7975 439.276 10.9331C375.701 -12.4641 323.899 11.1972 284.436 43.3392C264.702 59.4122 248.069 77.5949 234.611 93.0538C231.875 96.1965 229.268 99.2294 226.793 102.109C223.185 106.306 219.857 110.178 216.817 113.59ZM283.804 42.5638C323.413 10.3034 375.585 -13.5726 439.622 9.99468C455.59 15.8715 467.797 21.5215 476.739 26.9332C485.674 32.3399 491.391 37.5333 494.326 42.5155C497.279 47.529 497.409 52.3227 495.186 56.8211C492.983 61.2818 488.492 65.4024 482.315 69.1894C469.955 76.7671 450.613 83.144 428.397 88.2198C406.168 93.2986 381.014 97.0849 356.998 99.4615L356.952 99.4661L356.905 99.4619C339.934 97.9438 323.298 99.2738 309.4 103.173C295.49 107.075 284.386 113.531 278.391 122.214C272.423 130.858 271.461 141.793 278.001 154.836C284.556 167.909 298.641 183.075 322.737 200.055C348.656 218.319 363.421 245.237 364.321 278.798C365.221 312.338 352.275 352.477 322.867 397.238C263.972 486.88 134.662 507.724 61.6508 441.789C25.2058 408.876 8.00343 376.541 2.5268 344.157C-2.94735 311.788 3.3045 279.43 13.6542 246.49L13.6661 246.452L13.6839 246.416C18.4604 236.853 19.738 225.822 19.3075 213.728C18.9288 203.084 17.2302 191.662 15.4562 179.732C15.2136 178.1 14.9695 176.459 14.7273 174.809C10.7057 147.42 7.1782 117.665 18.9876 89.2719C32.8123 56.0337 62.0442 31.9767 94.262 17.4492C126.476 2.92357 161.751 -2.11005 187.745 2.77261C208.499 6.67074 223.565 14.2524 231.378 22.6262C235.287 26.8156 237.413 31.2409 237.466 35.5277C237.52 39.8316 235.484 43.9 231.266 47.3509L231.23 47.3802L231.19 47.4024C224.965 50.814 214.622 55.1946 202.213 60.4503C199.246 61.707 196.16 63.0138 192.985 64.3692C176.509 71.4024 157.569 79.7633 139.987 89.3009C122.398 98.842 106.204 109.542 95.1977 121.242C84.5222 132.59 78.7902 144.806 81.2823 157.784C89.7446 144.239 95.7542 136.141 105.867 131.472C116.203 126.699 130.769 125.535 156.5 125.535L203.336 125.535C206.765 122.993 211.007 118.609 216.07 112.925C219.107 109.517 222.423 105.658 226.024 101.469C228.5 98.5885 231.111 95.5518 233.857 92.3972C247.325 76.9269 264.002 58.6921 283.804 42.5638Z" fill="black"/>
<path d="M221.449 247.464C221.449 257.957 212.943 266.464 202.449 266.464C191.956 266.464 183.449 257.957 183.449 247.464C183.449 236.971 191.956 228.464 202.449 228.464C212.943 228.464 221.449 236.971 221.449 247.464Z" fill="#FF1616"/>
<path d="M105.449 290.464C105.449 300.957 96.9426 309.464 86.4492 309.464C75.9558 309.464 67.4492 300.957 67.4492 290.464C67.4492 279.971 75.9558 271.464 86.4492 271.464C96.9426 271.464 105.449 279.971 105.449 290.464Z" fill="#FF1616"/>
<path d="M212.449 247.464C212.449 252.987 207.972 257.464 202.449 257.464C196.926 257.464 192.449 252.987 192.449 247.464C192.449 241.941 196.926 237.464 202.449 237.464C207.972 237.464 212.449 241.941 212.449 247.464Z" fill="#262424"/>
<path d="M212.449 247.464C212.449 252.987 207.972 257.464 202.449 257.464C196.926 257.464 192.449 252.987 192.449 247.464C192.449 241.941 196.926 237.464 202.449 237.464C207.972 237.464 212.449 241.941 212.449 247.464Z" fill="#312F2F"/>
<path d="M96.4492 290.464C96.4492 295.987 91.9721 300.464 86.4492 300.464C80.9264 300.464 76.4492 295.987 76.4492 290.464C76.4492 284.941 80.9264 280.464 86.4492 280.464C91.9721 280.464 96.4492 284.941 96.4492 290.464Z" fill="#262424"/>
<path d="M96.4492 290.464C96.4492 295.987 91.9721 300.464 86.4492 300.464C80.9264 300.464 76.4492 295.987 76.4492 290.464C76.4492 284.941 80.9264 280.464 86.4492 280.464C91.9721 280.464 96.4492 284.941 96.4492 290.464Z" fill="#312F2F"/>
<path d="M207.449 247.464C207.449 244.702 205.211 242.464 202.449 242.464C199.688 242.464 197.449 244.702 197.449 247.464C197.449 250.225 199.688 252.464 202.449 252.464C205.211 252.464 207.449 250.225 207.449 247.464Z" fill="#262424"/>
<path d="M207.449 247.464C207.449 244.702 205.211 242.464 202.449 242.464C199.688 242.464 197.449 244.702 197.449 247.464C197.449 250.225 199.688 252.464 202.449 252.464C205.211 252.464 207.449 250.225 207.449 247.464Z" fill="#FF0000"/>
<path d="M91.4492 290.464C91.4492 287.702 89.2106 285.464 86.4492 285.464C83.6878 285.464 81.4492 287.702 81.4492 290.464C81.4492 293.225 83.6878 295.464 86.4492 295.464C89.2106 295.464 91.4492 293.225 91.4492 290.464Z" fill="#262424"/>
<path d="M91.4492 290.464C91.4492 287.702 89.2106 285.464 86.4492 285.464C83.6878 285.464 81.4492 287.702 81.4492 290.464C81.4492 293.225 83.6878 295.464 86.4492 295.464C89.2106 295.464 91.4492 293.225 91.4492 290.464Z" fill="#FF0000"/>
<path d="M171.449 336.464C171.449 340.33 168.315 343.464 164.449 343.464C160.583 343.464 157.449 340.33 157.449 336.464C157.449 332.598 160.583 329.464 164.449 329.464C168.315 329.464 171.449 332.598 171.449 336.464Z" fill="#2D2D2D"/>
<path fill-rule="evenodd" clip-rule="evenodd" d="M166.459 376.675C174.073 364.396 170.828 348.055 165.396 336.679L166.299 336.248C171.782 347.731 175.195 364.485 167.309 377.202C159.398 389.96 140.296 398.386 101.388 393.609L101.51 392.617C140.317 397.381 158.871 388.912 166.459 376.675Z" fill="black"/>
<path fill-rule="evenodd" clip-rule="evenodd" d="M193.317 367.08C175.916 358.936 165.886 343.959 161.977 332.627L162.922 332.301C166.761 343.428 176.63 358.166 193.741 366.174C210.831 374.173 235.233 375.5 268.233 359.655L268.666 360.556C235.462 376.499 210.739 375.234 193.317 367.08Z" fill="black"/>
</svg>
